<mxfile host="app.diagrams.net" agent="Mozilla/5.0 (Windows NT 10.0; Win64; x64) AppleWebKit/537.36 (KHTML, like Gecko) Chrome/134.0.0.0 Safari/537.36 Edg/134.0.0.0" version="26.2.5">
  <diagram id="C5RBs43oDa-KdzZeNtuy" name="Page-1">
    <mxGraphModel dx="1853" dy="1702" grid="1" gridSize="10" guides="1" tooltips="1" connect="1" arrows="1" fold="1" page="1" pageScale="1" pageWidth="827" pageHeight="1169" background="light-dark(#FFFFFF,#000000)" math="0" shadow="0">
      <root>
        <mxCell id="WIyWlLk6GJQsqaUBKTNV-0" />
        <mxCell id="WIyWlLk6GJQsqaUBKTNV-1" parent="WIyWlLk6GJQsqaUBKTNV-0" />
        <mxCell id="gX2V6tMiRpIjMi5Zaf3G-14" value="" style="edgeStyle=orthogonalEdgeStyle;rounded=1;orthogonalLoop=1;jettySize=auto;html=1;" parent="WIyWlLk6GJQsqaUBKTNV-1" source="gX2V6tMiRpIjMi5Zaf3G-0" target="gX2V6tMiRpIjMi5Zaf3G-11" edge="1">
          <mxGeometry relative="1" as="geometry" />
        </mxCell>
        <mxCell id="gX2V6tMiRpIjMi5Zaf3G-0" value="start Sudoku checker" style="ellipse;whiteSpace=wrap;html=1;rounded=1;" parent="WIyWlLk6GJQsqaUBKTNV-1" vertex="1">
          <mxGeometry x="-508" y="-290" width="120" height="80" as="geometry" />
        </mxCell>
        <mxCell id="gX2V6tMiRpIjMi5Zaf3G-17" value="" style="edgeStyle=orthogonalEdgeStyle;rounded=1;orthogonalLoop=1;jettySize=auto;html=1;" parent="WIyWlLk6GJQsqaUBKTNV-1" source="gX2V6tMiRpIjMi5Zaf3G-5" target="gX2V6tMiRpIjMi5Zaf3G-6" edge="1">
          <mxGeometry relative="1" as="geometry" />
        </mxCell>
        <mxCell id="GnE3_cOFy9U_F-tVZtUl-3" style="edgeStyle=orthogonalEdgeStyle;rounded=1;orthogonalLoop=1;jettySize=auto;html=1;" edge="1" parent="WIyWlLk6GJQsqaUBKTNV-1" source="gX2V6tMiRpIjMi5Zaf3G-5">
          <mxGeometry relative="1" as="geometry">
            <mxPoint x="-110" y="15" as="targetPoint" />
          </mxGeometry>
        </mxCell>
        <mxCell id="gX2V6tMiRpIjMi5Zaf3G-5" value="are numbers of rows equal to numbers of columns ?!" style="shape=parallelogram;perimeter=parallelogramPerimeter;whiteSpace=wrap;html=1;fixedSize=1;rounded=1;" parent="WIyWlLk6GJQsqaUBKTNV-1" vertex="1">
          <mxGeometry x="-553" y="-30" width="212" height="90" as="geometry" />
        </mxCell>
        <mxCell id="GnE3_cOFy9U_F-tVZtUl-5" style="edgeStyle=orthogonalEdgeStyle;rounded=1;orthogonalLoop=1;jettySize=auto;html=1;" edge="1" parent="WIyWlLk6GJQsqaUBKTNV-1" source="gX2V6tMiRpIjMi5Zaf3G-6" target="gX2V6tMiRpIjMi5Zaf3G-8">
          <mxGeometry relative="1" as="geometry" />
        </mxCell>
        <mxCell id="gX2V6tMiRpIjMi5Zaf3G-6" value="loop in rows and columns and box" style="shape=parallelogram;perimeter=parallelogramPerimeter;whiteSpace=wrap;html=1;fixedSize=1;rounded=1;" parent="WIyWlLk6GJQsqaUBKTNV-1" vertex="1">
          <mxGeometry x="-564.5" y="110" width="233" height="70" as="geometry" />
        </mxCell>
        <mxCell id="GnE3_cOFy9U_F-tVZtUl-11" style="edgeStyle=orthogonalEdgeStyle;rounded=1;orthogonalLoop=1;jettySize=auto;html=1;entryX=0.5;entryY=0;entryDx=0;entryDy=0;" edge="1" parent="WIyWlLk6GJQsqaUBKTNV-1" source="gX2V6tMiRpIjMi5Zaf3G-7" target="gX2V6tMiRpIjMi5Zaf3G-13">
          <mxGeometry relative="1" as="geometry" />
        </mxCell>
        <mxCell id="GnE3_cOFy9U_F-tVZtUl-14" style="edgeStyle=orthogonalEdgeStyle;rounded=1;orthogonalLoop=1;jettySize=auto;html=1;" edge="1" parent="WIyWlLk6GJQsqaUBKTNV-1" source="gX2V6tMiRpIjMi5Zaf3G-7">
          <mxGeometry relative="1" as="geometry">
            <mxPoint x="-110" y="450" as="targetPoint" />
          </mxGeometry>
        </mxCell>
        <mxCell id="gX2V6tMiRpIjMi5Zaf3G-7" value="are there any duplicates in each of them ?!" style="shape=parallelogram;perimeter=parallelogramPerimeter;whiteSpace=wrap;html=1;fixedSize=1;rounded=1;" parent="WIyWlLk6GJQsqaUBKTNV-1" vertex="1">
          <mxGeometry x="-555" y="420" width="190" height="60" as="geometry" />
        </mxCell>
        <mxCell id="gX2V6tMiRpIjMi5Zaf3G-41" style="edgeStyle=orthogonalEdgeStyle;rounded=1;orthogonalLoop=1;jettySize=auto;html=1;" parent="WIyWlLk6GJQsqaUBKTNV-1" source="gX2V6tMiRpIjMi5Zaf3G-8" edge="1">
          <mxGeometry relative="1" as="geometry">
            <mxPoint x="-110" y="335" as="targetPoint" />
          </mxGeometry>
        </mxCell>
        <mxCell id="GnE3_cOFy9U_F-tVZtUl-9" style="edgeStyle=orthogonalEdgeStyle;rounded=1;orthogonalLoop=1;jettySize=auto;html=1;" edge="1" parent="WIyWlLk6GJQsqaUBKTNV-1" source="gX2V6tMiRpIjMi5Zaf3G-8" target="GnE3_cOFy9U_F-tVZtUl-7">
          <mxGeometry relative="1" as="geometry" />
        </mxCell>
        <mxCell id="gX2V6tMiRpIjMi5Zaf3G-8" value="is input between 1..9 or &#39;-&#39;" style="shape=parallelogram;perimeter=parallelogramPerimeter;whiteSpace=wrap;html=1;fixedSize=1;rounded=1;" parent="WIyWlLk6GJQsqaUBKTNV-1" vertex="1">
          <mxGeometry x="-547" y="220" width="200" height="50" as="geometry" />
        </mxCell>
        <mxCell id="gX2V6tMiRpIjMi5Zaf3G-16" value="" style="edgeStyle=orthogonalEdgeStyle;rounded=1;orthogonalLoop=1;jettySize=auto;html=1;" parent="WIyWlLk6GJQsqaUBKTNV-1" source="gX2V6tMiRpIjMi5Zaf3G-11" target="gX2V6tMiRpIjMi5Zaf3G-5" edge="1">
          <mxGeometry relative="1" as="geometry" />
        </mxCell>
        <mxCell id="gX2V6tMiRpIjMi5Zaf3G-35" style="edgeStyle=orthogonalEdgeStyle;rounded=1;orthogonalLoop=1;jettySize=auto;html=1;entryX=0.5;entryY=0;entryDx=0;entryDy=0;" parent="WIyWlLk6GJQsqaUBKTNV-1" source="gX2V6tMiRpIjMi5Zaf3G-11" target="gX2V6tMiRpIjMi5Zaf3G-34" edge="1">
          <mxGeometry relative="1" as="geometry" />
        </mxCell>
        <mxCell id="gX2V6tMiRpIjMi5Zaf3G-11" value="is input game list empty ?!" style="shape=parallelogram;perimeter=parallelogramPerimeter;whiteSpace=wrap;html=1;fixedSize=1;rounded=1;" parent="WIyWlLk6GJQsqaUBKTNV-1" vertex="1">
          <mxGeometry x="-516" y="-160" width="138" height="60" as="geometry" />
        </mxCell>
        <mxCell id="gX2V6tMiRpIjMi5Zaf3G-13" value="True" style="ellipse;whiteSpace=wrap;html=1;rounded=1;" parent="WIyWlLk6GJQsqaUBKTNV-1" vertex="1">
          <mxGeometry x="-520" y="560" width="120" height="80" as="geometry" />
        </mxCell>
        <mxCell id="gX2V6tMiRpIjMi5Zaf3G-25" value="No" style="text;strokeColor=none;align=center;fillColor=none;html=1;verticalAlign=middle;whiteSpace=wrap;rounded=1;" parent="WIyWlLk6GJQsqaUBKTNV-1" vertex="1">
          <mxGeometry x="-518" y="-80" width="60" height="30" as="geometry" />
        </mxCell>
        <mxCell id="gX2V6tMiRpIjMi5Zaf3G-33" value="No" style="text;strokeColor=none;align=center;fillColor=none;html=1;verticalAlign=middle;whiteSpace=wrap;rounded=1;" parent="WIyWlLk6GJQsqaUBKTNV-1" vertex="1">
          <mxGeometry x="-540" y="520" width="60" height="30" as="geometry" />
        </mxCell>
        <mxCell id="gX2V6tMiRpIjMi5Zaf3G-34" value="False" style="ellipse;whiteSpace=wrap;html=1;rounded=1;" parent="WIyWlLk6GJQsqaUBKTNV-1" vertex="1">
          <mxGeometry x="-170" y="560" width="120" height="80" as="geometry" />
        </mxCell>
        <mxCell id="gX2V6tMiRpIjMi5Zaf3G-36" value="Yes" style="text;strokeColor=none;align=center;fillColor=none;html=1;verticalAlign=middle;whiteSpace=wrap;rounded=1;" parent="WIyWlLk6GJQsqaUBKTNV-1" vertex="1">
          <mxGeometry x="-280" y="-170" width="60" height="30" as="geometry" />
        </mxCell>
        <mxCell id="gX2V6tMiRpIjMi5Zaf3G-40" value="No" style="text;strokeColor=none;align=center;fillColor=none;html=1;verticalAlign=middle;whiteSpace=wrap;rounded=1;" parent="WIyWlLk6GJQsqaUBKTNV-1" vertex="1">
          <mxGeometry x="-260" y="-20" width="60" height="30" as="geometry" />
        </mxCell>
        <mxCell id="GnE3_cOFy9U_F-tVZtUl-1" value="Yes" style="text;strokeColor=none;align=center;fillColor=none;html=1;verticalAlign=middle;whiteSpace=wrap;rounded=1;" vertex="1" parent="WIyWlLk6GJQsqaUBKTNV-1">
          <mxGeometry x="-526" y="70" width="60" height="30" as="geometry" />
        </mxCell>
        <mxCell id="GnE3_cOFy9U_F-tVZtUl-4" value="Yes" style="text;strokeColor=none;align=center;fillColor=none;html=1;verticalAlign=middle;whiteSpace=wrap;rounded=1;" vertex="1" parent="WIyWlLk6GJQsqaUBKTNV-1">
          <mxGeometry x="-526" y="280" width="60" height="30" as="geometry" />
        </mxCell>
        <mxCell id="GnE3_cOFy9U_F-tVZtUl-7" value="skip cells contains &#39;-&#39;" style="shape=parallelogram;perimeter=parallelogramPerimeter;whiteSpace=wrap;html=1;fixedSize=1;rounded=1;" vertex="1" parent="WIyWlLk6GJQsqaUBKTNV-1">
          <mxGeometry x="-529" y="320" width="164" height="60" as="geometry" />
        </mxCell>
        <mxCell id="GnE3_cOFy9U_F-tVZtUl-10" style="edgeStyle=orthogonalEdgeStyle;rounded=1;orthogonalLoop=1;jettySize=auto;html=1;entryX=0.572;entryY=0.045;entryDx=0;entryDy=0;entryPerimeter=0;" edge="1" parent="WIyWlLk6GJQsqaUBKTNV-1" source="GnE3_cOFy9U_F-tVZtUl-7" target="gX2V6tMiRpIjMi5Zaf3G-7">
          <mxGeometry relative="1" as="geometry" />
        </mxCell>
        <mxCell id="GnE3_cOFy9U_F-tVZtUl-13" value="No" style="text;strokeColor=none;align=center;fillColor=none;html=1;verticalAlign=middle;whiteSpace=wrap;rounded=1;" vertex="1" parent="WIyWlLk6GJQsqaUBKTNV-1">
          <mxGeometry x="-260" y="200" width="60" height="30" as="geometry" />
        </mxCell>
        <mxCell id="GnE3_cOFy9U_F-tVZtUl-15" value="Yes" style="text;strokeColor=none;align=center;fillColor=none;html=1;verticalAlign=middle;whiteSpace=wrap;rounded=1;" vertex="1" parent="WIyWlLk6GJQsqaUBKTNV-1">
          <mxGeometry x="-260" y="410" width="60" height="30" as="geometry" />
        </mxCell>
      </root>
    </mxGraphModel>
  </diagram>
</mxfile>
